<svg width="32" height="32" viewBox="0 0 32 32" fill="none" xmlns="http://www.w3.org/2000/svg">
<g id="grafico - icon">
<path id="XMLID_3390_" d="M2.24 20.4173C1.8688 20.4173 1.5104 20.2991 1.1904 20.0775L0 19.2502V31.9926H4.32V19.036L3.616 19.7894C3.2448 20.1957 2.752 20.4173 2.24 20.4173Z" fill="#0E9094"/>
<path id="XMLID_183_" d="M8.78125 14.2567V32H13.1077V13.747L10.8869 11.9963L8.78125 14.2567Z" fill="#0E9094"/>
<path id="XMLID_182_" d="M18.1882 17.2631C17.7786 17.2631 17.3818 17.1227 17.0426 16.8568L16.1914 16.1846V31.9925H20.5114V15.6897L19.5194 16.6943C19.1482 17.0636 18.6746 17.2631 18.1882 17.2631Z" fill="#0E9094"/>
<path id="XMLID_175_" d="M23.8398 32H28.1598V8.02222L23.8398 12.3583V32Z" fill="#0E9094"/>
<path id="XMLID_498_" d="M25.2878 2.20868L27.0734 4.21052L18.1006 13.156L11.3742 7.85225C10.907 7.4829 10.2734 7.53461 9.85741 7.98521L2.07501 16.3324L0.0078125 14.8846V18.1643L1.61421 19.2797C2.08141 19.6048 2.67021 19.5309 3.07341 19.1025L10.811 10.7996L17.5054 16.0812C17.9598 16.4432 18.5742 16.3989 18.9902 15.9852L28.827 6.16804L30.299 7.81531L32.0014 0L25.2878 2.20868Z" fill="#3C3C3C"/>
</g>
</svg>
