<svg width="146" height="63" viewBox="0 0 146 63" fill="none" xmlns="http://www.w3.org/2000/svg">
<g clip-path="url(#clip0_71_60)">
<g clip-path="url(#clip1_71_60)">
<path fill-rule="evenodd" clip-rule="evenodd" d="M30.4495 2.09214L29.9833 2.08851C27.6554 2.08695 25.309 2.34404 22.9916 2.86908C6.92605 6.51386 -2.98958 21.8127 0.863063 37.012C4.14363 49.9551 16.3578 58.6797 29.8315 58.7328L30.2018 58.7324C32.4316 58.7141 34.693 58.4596 36.9519 57.9463C46.4741 55.7869 54.2783 49.3569 57.8462 40.7291L54.7992 39.6002C51.6204 47.285 44.6698 53.0122 36.188 54.9376C34.1768 55.3934 32.163 55.6213 30.1765 55.6365H29.8461C17.8461 55.5899 6.96726 47.8192 4.04589 36.291C0.614135 22.753 9.44604 9.12734 23.7551 5.88052C25.8189 5.41249 27.9089 5.1834 29.9824 5.18495L30.3966 5.18806C37.0272 5.28861 43.4726 7.72927 48.3836 12.166L50.644 9.92642C45.1288 4.94498 37.8928 2.20473 30.4495 2.09274V2.09214ZM30.0402 11.5056L29.751 11.504C28.211 11.5071 26.6606 11.6782 25.1315 12.0249C14.4167 14.4552 7.80507 24.6592 10.3731 34.7953C12.5612 43.4272 20.7077 49.2462 29.6923 49.2806L29.94 49.2802C31.4273 49.2689 32.9346 49.0989 34.4411 48.7573C40.5584 47.3691 45.6254 43.3352 48.1169 37.8701L45.1121 36.6438C43.0291 41.2128 38.7922 44.5863 33.678 45.7465C32.4185 46.0323 31.1579 46.1739 29.9149 46.1839L29.7083 46.1848C22.1958 46.1547 15.3847 41.2899 13.5558 34.0736C11.4078 25.5988 16.9361 17.0685 25.8945 15.0358C27.1732 14.746 28.4688 14.6024 29.7574 14.6004L29.9985 14.6019C33.7786 14.647 37.4766 15.9081 40.4481 18.2421L42.5387 15.86C38.9837 13.0683 34.5616 11.56 30.0402 11.5056ZM30.0293 20.9688L29.7811 20.9636C28.9522 20.9548 28.1189 21.0424 27.3004 21.2285C21.8465 22.4657 18.4805 27.6591 19.7884 32.8189C20.912 37.253 25.125 40.2287 29.7488 40.1923L30.0009 40.1871C30.6753 40.1664 31.3579 40.0809 32.0399 39.9254C34.1744 39.4418 36.0859 38.316 37.4878 36.7186L34.971 34.7408C34.0199 35.8241 32.7238 36.587 31.2763 36.9156C30.8144 37.0204 30.3521 37.0784 29.8946 37.0924L29.7237 37.096C26.5884 37.1204 23.7324 35.1031 22.971 32.0969C22.084 28.5989 24.3658 25.0775 28.0633 24.2383C28.6188 24.1129 29.1836 24.0532 29.7451 24.0595L29.9139 24.0631C31.0912 24.1025 32.2493 24.4269 33.2712 25.0199L34.982 22.3806C33.4738 21.5062 31.7664 21.0269 30.0293 20.9688ZM45.4286 28.3987L52.2196 32.0751C52.5457 32.2513 52.9265 32.3166 53.2973 32.2586L65.2507 30.4056C65.9383 30.2988 66.479 29.7924 66.5987 29.144C66.718 28.4946 66.3905 27.8451 65.7817 27.5248L58.7264 23.8112L63.5424 18.4214C63.775 18.1611 63.9008 17.8502 63.9242 17.5345C63.9597 17.3629 63.9643 17.1831 63.9339 17.0002C63.7921 16.1569 62.9525 15.5805 62.0608 15.7148L50.2912 17.4848C49.8219 17.5553 49.4083 17.8165 49.1573 18.199L44.4118 25.4486L30.4653 28.8337C29.5904 29.0462 29.0622 29.8901 29.2869 30.7178C29.511 31.545 30.4029 32.0451 31.2777 31.8326L45.4286 28.3987ZM51.5449 20.4308L47.8185 26.1254L53.3406 29.115C53.3406 29.115 60.085 28.0685 60.085 28.0695L55.3984 25.6018C54.9701 25.3764 54.6721 24.982 54.5836 24.5274C54.4957 24.0718 54.6274 23.6027 54.9438 23.2492L58.3805 19.4034L51.5449 20.4308Z" fill="#0E9094"/>
</g>
</g>
<path d="M83.6518 26.685C83.5666 25.9653 83.221 25.4066 82.6149 25.0088C82.0088 24.6111 81.2655 24.4122 80.3848 24.4122C79.7408 24.4122 79.1774 24.5164 78.6944 24.7247C78.2162 24.9331 77.8422 25.2195 77.5723 25.5841C77.3071 25.9487 77.1745 26.363 77.1745 26.827C77.1745 27.2153 77.2669 27.5491 77.4515 27.8284C77.6409 28.1031 77.8824 28.3327 78.176 28.5174C78.4695 28.6973 78.7773 28.8464 79.0993 28.9648C79.4212 29.0784 79.7172 29.1708 79.987 29.2418L81.4643 29.6395C81.8431 29.7389 82.2645 29.8763 82.7285 30.0514C83.1973 30.2266 83.6447 30.4657 84.0709 30.7688C84.5017 31.0671 84.8568 31.4506 85.1362 31.9193C85.4156 32.3881 85.5552 32.9634 85.5552 33.6452C85.5552 34.4312 85.3493 35.1414 84.9373 35.7759C84.5301 36.4103 83.9335 36.9146 83.1476 37.2887C82.3663 37.6627 81.417 37.8497 80.2995 37.8497C79.2579 37.8497 78.3559 37.6816 77.5936 37.3455C76.836 37.0093 76.2394 36.5406 75.8038 35.9392C75.3729 35.3379 75.1291 34.6395 75.0723 33.8441H76.8905C76.9378 34.3933 77.1225 34.8478 77.4444 35.2077C77.7711 35.5628 78.1831 35.828 78.6802 36.0031C79.1821 36.1736 79.7219 36.2588 80.2995 36.2588C80.9719 36.2588 81.5756 36.1499 82.1106 35.9321C82.6457 35.7096 83.0694 35.4018 83.3819 35.0088C83.6944 34.6111 83.8507 34.1471 83.8507 33.6168C83.8507 33.1338 83.7157 32.7408 83.4459 32.4378C83.176 32.1348 82.8209 31.8886 82.3805 31.6992C81.9402 31.5098 81.4643 31.3441 80.953 31.202L79.1632 30.6906C78.0268 30.3639 77.1272 29.8976 76.4643 29.2915C75.8014 28.6854 75.47 27.8924 75.47 26.9122C75.47 26.0978 75.6902 25.3876 76.1305 24.7816C76.5756 24.1708 77.1722 23.6973 77.9203 23.3611C78.6731 23.0202 79.5136 22.8497 80.4416 22.8497C81.3791 22.8497 82.2124 23.0178 82.9416 23.354C83.6708 23.6854 84.2484 24.14 84.6745 24.7176C85.1054 25.2953 85.3327 25.9511 85.3564 26.685H83.6518ZM88.4512 37.5941V23.0486H93.366C94.5071 23.0486 95.4398 23.2546 96.1643 23.6665C96.8934 24.0737 97.4332 24.6253 97.7836 25.3213C98.1339 26.0174 98.3091 26.7939 98.3091 27.6509C98.3091 28.5079 98.1339 29.2868 97.7836 29.9875C97.4379 30.6883 96.9029 31.247 96.1785 31.6637C95.454 32.0756 94.526 32.2816 93.3944 32.2816H89.8716V30.7191H93.3375C94.1188 30.7191 94.7462 30.5841 95.2196 30.3142C95.6931 30.0443 96.0364 29.6798 96.2495 29.2205C96.4673 28.7565 96.5762 28.2333 96.5762 27.6509C96.5762 27.0685 96.4673 26.5477 96.2495 26.0884C96.0364 25.6291 95.6908 25.2692 95.2125 25.0088C94.7343 24.7437 94.0999 24.6111 93.3091 24.6111H90.2125V37.5941H88.4512ZM101.146 37.5941V23.0486H102.908V36.0316H109.669V37.5941H101.146ZM113.911 37.5941H112.064L117.405 23.0486H119.224L124.564 37.5941H122.718L118.371 25.3497H118.258L113.911 37.5941ZM114.593 31.9122H122.036V33.4747H114.593V31.9122ZM138.364 23.0486V37.5941H136.66L128.733 26.1736H128.591V37.5941H126.83V23.0486H128.535L136.489 34.4975H136.631V23.0486H138.364Z" fill="#0E9094"/>
<defs>
<clipPath id="clip0_71_60">
<rect width="66.5907" height="63" fill="white"/>
</clipPath>
<clipPath id="clip1_71_60">
<rect width="66.7811" height="56.6443" fill="white" transform="translate(0 2.0885)"/>
</clipPath>
</defs>
</svg>
