<svg width="34" height="35" viewBox="0 0 34 35" fill="none" xmlns="http://www.w3.org/2000/svg">
<path d="M12.5591 3.73467C12.2952 3.07522 11.8399 2.50992 11.2518 2.11163C10.6637 1.71334 9.96983 1.50031 9.25956 1.5H4.36889C3.4754 1.5 2.61851 1.85494 1.98672 2.48672C1.35494 3.11851 1 3.9754 1 4.86889C1 20.6804 13.8178 33.5 29.6329 33.5C30.5261 33.4995 31.3825 33.1444 32.0139 32.5126C32.6453 31.8809 33 31.0243 33 30.1311V25.2404C33 24.5299 32.7872 23.8356 32.3889 23.2471C31.9906 22.6587 31.4251 22.2031 30.7653 21.9391L26.0791 20.0653C25.484 19.8272 24.8356 19.7543 24.2025 19.8545C23.5694 19.9546 22.9752 20.224 22.4827 20.6342L21.2738 21.644C20.592 22.2128 19.7222 22.5059 18.8352 22.4658C17.9483 22.4257 17.1085 22.0551 16.4809 21.4271L13.0747 18.0156C12.4474 17.3884 12.0771 16.5494 12.0367 15.6633C11.9962 14.7772 12.2885 13.9079 12.856 13.2262L13.864 12.0173C14.2751 11.525 14.5454 10.9306 14.6461 10.2971C14.7469 9.66366 14.6745 9.01474 14.4364 8.41911L12.5591 3.73467Z" stroke="#0E9094" stroke-width="2" stroke-linecap="round" stroke-linejoin="round"/>
</svg>
