<svg width="32" height="32" viewBox="0 0 32 32" fill="none" xmlns="http://www.w3.org/2000/svg">
<g id="lupa - icon">
<g id="Group">
<g id="Group_2">
<g id="Group_3">
<path id="Vector" d="M27.1111 32H4.88889C2.17778 32 0 29.8222 0 27.1111V4.88889C0 2.17778 2.17778 0 4.88889 0H27.1111C29.8222 0 32 2.17778 32 4.88889V27.1111C32 29.8222 29.8222 32 27.1111 32Z" fill="#00AAAD"/>
</g>
</g>
</g>
<g id="Group_4">
<path id="Vector_2" d="M22.0888 9.91112C19.8222 7.64445 16.1777 7.64445 13.9111 9.91112C11.9111 11.9111 11.6888 14.9778 13.2 17.2L8.53328 21.8667C8.08884 22.3111 8.08884 22.9778 8.53328 23.4222C8.97773 23.8667 9.68884 23.8667 10.0888 23.4222L14.7555 18.7556C16.9777 20.2667 20.0888 20.0445 22.0444 18.0445C24.3555 15.8222 24.3555 12.1778 22.0888 9.91112ZM14.5777 17.4222C12.7111 15.5556 12.7111 12.4889 14.5777 10.5778C16.4444 8.66668 19.5111 8.71112 21.4222 10.5778C23.2888 12.4445 23.2888 15.5111 21.4222 17.4222C19.5555 19.3333 16.4888 19.2889 14.5777 17.4222Z" fill="white"/>
<path id="Vector_3" d="M20.4889 11.5111L19.8223 12.1778C20.8 13.1556 20.8 14.8 19.8223 15.7778L20.4889 16.4444C21.8223 15.1111 21.8223 12.8889 20.4889 11.5111Z" fill="white"/>
</g>
</g>
</svg>
