<svg width="194" height="254" viewBox="0 0 194 254" fill="none" xmlns="http://www.w3.org/2000/svg">
<path fill-rule="evenodd" clip-rule="evenodd" d="M88.6661 0.0111544L87.3085 2.15135e-05C80.53 -0.00474981 73.6976 0.784098 66.9493 2.39517C20.168 13.579 -8.70533 60.5231 2.5132 107.162C12.0659 146.877 47.6324 173.648 86.8666 173.811L87.945 173.81C94.4377 173.753 101.023 172.973 107.601 171.398C135.328 164.771 158.053 145.041 168.443 118.567L159.57 115.103C150.314 138.684 130.074 156.257 105.376 162.166C99.5197 163.564 93.6556 164.263 87.8711 164.31H86.9091C51.9663 164.167 20.2881 140.323 11.7813 104.949C1.78835 63.4081 27.506 21.5984 69.1727 11.6357C75.1822 10.1995 81.268 9.49657 87.3061 9.50133L88.5121 9.51088C107.82 9.81942 126.588 17.3085 140.889 30.9226L147.471 24.0503C131.411 8.76499 110.34 0.356651 88.6661 0.0130212V0.0111544ZM87.4744 28.8959L86.6321 28.8912C82.1479 28.9007 77.6332 29.4257 73.1805 30.4895C41.9801 37.9468 22.7277 69.2574 30.2054 100.36C36.5771 126.846 60.2989 144.702 86.4613 144.807L87.1824 144.806C91.5134 144.771 95.9025 144.25 100.289 143.201C118.102 138.942 132.857 126.564 140.112 109.795L131.362 106.032C125.297 120.051 112.959 130.403 98.0673 133.963C94.3997 134.84 90.7289 135.274 87.1094 135.305L86.5079 135.308C64.632 135.216 44.7988 120.288 39.4734 98.1451C33.2185 72.1405 49.3164 45.9656 75.4024 39.7282C79.1259 38.8391 82.8986 38.3986 86.6508 38.3923L87.3528 38.397C98.3602 38.5353 109.128 42.4049 117.781 49.5666L123.869 42.2572C113.517 33.6912 100.64 29.0628 87.4744 28.8959ZM87.4425 57.9334L86.7199 57.9175C84.3062 57.8905 81.8796 58.1593 79.4962 58.7303C63.6151 62.5266 53.8136 78.4625 57.6219 94.2951C60.8938 107.901 73.1616 117.032 86.6259 116.92L87.3597 116.904C89.3235 116.841 91.3113 116.578 93.2973 116.101C99.5127 114.617 105.079 111.163 109.161 106.261L101.832 100.192C99.0629 103.516 95.2886 105.857 91.0737 106.866C89.7288 107.187 88.3825 107.365 87.0503 107.408L86.5527 107.419C77.4229 107.494 69.1065 101.304 66.8894 92.0797C64.3065 81.3462 70.9509 70.5409 81.7177 67.9658C83.3352 67.5809 84.9799 67.398 86.615 67.4171L87.1064 67.4282C90.5347 67.5491 93.907 68.5446 96.8825 70.364L101.864 62.2656C97.4726 59.5825 92.5009 58.1118 87.4425 57.9334ZM132.284 80.732L152.059 92.0127C153.008 92.5534 154.117 92.7538 155.197 92.5757L190.004 86.8899C192.006 86.5622 193.581 85.0084 193.929 83.0189C194.277 81.0261 193.323 79.0333 191.55 78.0505L171.006 66.6553L185.03 50.1168C185.707 49.3183 186.073 48.3641 186.141 47.3956C186.245 46.869 186.258 46.3173 186.17 45.7559C185.757 43.1682 183.312 41.3997 180.715 41.8117L146.443 47.243C145.077 47.4592 143.872 48.2609 143.142 49.4345L129.323 71.6796L88.7122 82.0667C86.1645 82.7188 84.6266 85.308 85.2808 87.8478C85.9332 90.3861 88.5304 91.9208 91.0778 91.2686L132.284 80.732ZM150.094 56.2825L139.243 73.7563L155.323 82.9297C155.323 82.9297 174.962 79.7186 174.962 79.7218L161.315 72.1497C160.068 71.4579 159.2 70.2477 158.942 68.8528C158.686 67.4548 159.07 66.0155 159.991 64.9309L169.999 53.1302L150.094 56.2825Z" fill="#0E9094"/>
<path d="M27.2045 211.455C26.9659 209.439 25.9981 207.875 24.3011 206.761C22.6042 205.648 20.5227 205.091 18.0568 205.091C16.2538 205.091 14.6761 205.383 13.3239 205.966C11.9848 206.549 10.9375 207.351 10.1818 208.372C9.43939 209.393 9.06818 210.553 9.06818 211.852C9.06818 212.939 9.3267 213.874 9.84375 214.656C10.3741 215.425 11.0502 216.068 11.8722 216.585C12.6941 217.089 13.5559 217.507 14.4574 217.838C15.3589 218.156 16.1875 218.415 16.9432 218.614L21.0795 219.727C22.1402 220.006 23.3201 220.39 24.6193 220.881C25.9318 221.371 27.1847 222.041 28.3778 222.889C29.5843 223.724 30.5786 224.798 31.3608 226.111C32.143 227.423 32.5341 229.034 32.5341 230.943C32.5341 233.144 31.9574 235.133 30.804 236.909C29.6638 238.686 27.9934 240.098 25.7926 241.145C23.6051 242.192 20.947 242.716 17.8182 242.716C14.9015 242.716 12.3759 242.245 10.2415 241.304C8.12027 240.363 6.44981 239.05 5.23011 237.366C4.02367 235.683 3.34091 233.727 3.18182 231.5H8.27273C8.4053 233.038 8.92235 234.311 9.82386 235.318C10.7386 236.312 11.892 237.055 13.2841 237.545C14.6894 238.023 16.2008 238.261 17.8182 238.261C19.7008 238.261 21.3911 237.956 22.8892 237.347C24.3873 236.723 25.5739 235.862 26.4489 234.761C27.3239 233.648 27.7614 232.348 27.7614 230.864C27.7614 229.511 27.3835 228.411 26.6278 227.562C25.8722 226.714 24.8778 226.025 23.6449 225.494C22.4119 224.964 21.0795 224.5 19.6477 224.102L14.6364 222.67C11.4545 221.756 8.93561 220.45 7.07955 218.753C5.22348 217.056 4.29545 214.835 4.29545 212.091C4.29545 209.811 4.91193 207.822 6.14489 206.125C7.3911 204.415 9.06155 203.089 11.1562 202.148C13.2642 201.193 15.6174 200.716 18.2159 200.716C20.8409 200.716 23.1742 201.187 25.2159 202.128C27.2576 203.056 28.875 204.329 30.0682 205.946C31.2746 207.563 31.911 209.4 31.9773 211.455H27.2045ZM40.6428 242V201.273H54.4041C57.5992 201.273 60.2109 201.849 62.2393 203.003C64.281 204.143 65.7924 205.688 66.7734 207.636C67.7545 209.585 68.245 211.759 68.245 214.159C68.245 216.559 67.7545 218.74 66.7734 220.702C65.8056 222.664 64.3075 224.228 62.2791 225.395C60.2507 226.548 57.6522 227.125 54.4837 227.125H44.62V222.75H54.3246C56.5121 222.75 58.2687 222.372 59.5945 221.616C60.9202 220.861 61.8814 219.84 62.478 218.554C63.0878 217.255 63.3928 215.79 63.3928 214.159C63.3928 212.528 63.0878 211.07 62.478 209.784C61.8814 208.498 60.9136 207.491 59.5746 206.761C58.2356 206.019 56.459 205.648 54.245 205.648H45.5746V242H40.6428ZM76.1896 242V201.273H81.1214V237.625H100.053V242H76.1896ZM111.93 242H106.76L121.714 201.273H126.805L141.76 242H136.589L124.419 207.716H124.101L111.93 242ZM113.839 226.091H134.68V230.466H113.839V226.091ZM180.399 201.273V242H175.626L153.433 210.023H153.036V242H148.104V201.273H152.876L175.149 233.33H175.547V201.273H180.399Z" fill="#0E9094"/>
</svg>
