<svg width="255" height="334" viewBox="0 0 255 334" fill="none" xmlns="http://www.w3.org/2000/svg">
<path fill-rule="evenodd" clip-rule="evenodd" d="M116.546 0.0146675L114.761 2.82894e-05C105.851 -0.00624581 96.8705 1.03106 88.0003 3.14955C26.5094 17.8559 -11.4427 79.5855 3.30335 140.913C15.8597 193.137 62.6095 228.34 114.18 228.554L115.598 228.553C124.132 228.479 132.788 227.452 141.434 225.381C177.88 216.668 207.75 190.723 221.407 155.911L209.744 151.356C197.577 182.364 170.974 205.472 138.51 213.241C130.812 215.08 123.104 216 115.501 216.061H114.236C68.3062 215.873 26.6672 184.519 15.4856 138.004C2.35057 83.3791 36.1547 28.4011 90.9228 15.3004C98.8219 13.412 106.821 12.4876 114.758 12.4939L116.343 12.5064C141.722 12.9122 166.392 22.76 185.188 40.662L193.84 31.6253C172.731 11.5256 145.035 0.468982 116.546 0.0171224V0.0146675ZM114.979 37.997L113.872 37.9909C107.978 38.0033 102.044 38.6936 96.1908 40.0925C55.1799 49.8985 29.8739 91.0707 39.7029 131.969C48.0781 166.798 79.2588 190.277 113.648 190.416L114.595 190.414C120.288 190.368 126.057 189.683 131.824 188.304C155.237 182.703 174.632 166.427 184.168 144.376L172.667 139.428C164.694 157.863 148.477 171.475 128.903 176.156C124.082 177.309 119.257 177.88 114.499 177.921L113.709 177.924C84.9544 177.803 58.8849 158.174 51.885 129.057C43.6634 94.8619 64.8231 60.443 99.1114 52.2411C104.006 51.0719 108.965 50.4926 113.897 50.4843L114.819 50.4905C129.288 50.6725 143.442 55.7608 154.815 65.1781L162.817 55.5665C149.21 44.3027 132.285 38.2164 114.979 37.997ZM114.937 76.1802L113.987 76.1593C110.815 76.1238 107.625 76.4771 104.492 77.228C83.6176 82.22 70.7343 103.175 75.7401 123.994C80.0407 141.886 96.1659 153.892 113.864 153.745L114.828 153.724C117.41 153.641 120.023 153.296 122.633 152.668C130.803 150.717 138.119 146.175 143.485 139.729L133.852 131.749C130.211 136.12 125.25 139.198 119.71 140.524C117.942 140.947 116.173 141.181 114.422 141.237L113.768 141.252C101.767 141.35 90.8358 133.211 87.9215 121.081C84.5265 106.967 93.2601 92.7585 107.412 89.3724C109.538 88.8662 111.7 88.6257 113.85 88.6508L114.495 88.6654C119.002 88.8244 123.434 90.1334 127.346 92.5259L133.894 81.8768C128.121 78.3487 121.586 76.4147 114.937 76.1802ZM173.878 106.159L199.871 120.993C201.119 121.704 202.577 121.968 203.996 121.733L249.747 114.257C252.379 113.826 254.449 111.783 254.907 109.167C255.364 106.546 254.11 103.926 251.78 102.633L224.776 87.6491L243.209 65.9016C244.099 64.8516 244.581 63.5969 244.67 62.3233C244.806 61.631 244.824 60.9054 244.707 60.1671C244.164 56.7645 240.951 54.439 237.538 54.9807L192.49 62.1227C190.694 62.407 189.111 63.4611 188.15 65.0044L169.986 94.2559L116.606 107.914C113.257 108.772 111.236 112.177 112.096 115.516C112.953 118.854 116.367 120.872 119.716 120.015L173.878 106.159ZM197.288 74.0093L183.026 96.9866L204.161 109.049C204.161 109.049 229.976 104.827 229.976 104.831L212.038 94.874C210.398 93.9644 209.258 92.3729 208.919 90.5387C208.582 88.7004 209.087 86.8078 210.298 85.3816L223.452 69.8642L197.288 74.0093Z" fill="#0E9094"/>
<path d="M60.7188 271C60.4844 269.021 59.5339 267.484 57.8672 266.391C56.2005 265.297 54.1563 264.75 51.7344 264.75C49.9635 264.75 48.4141 265.036 47.0859 265.609C45.7708 266.182 44.7422 266.97 44 267.973C43.2708 268.975 42.9063 270.115 42.9063 271.391C42.9063 272.458 43.1602 273.376 43.668 274.145C44.1888 274.9 44.8529 275.531 45.6602 276.039C46.4674 276.534 47.3138 276.944 48.1992 277.27C49.0846 277.582 49.8984 277.836 50.6406 278.031L54.7031 279.125C55.7448 279.398 56.9036 279.776 58.1797 280.258C59.4688 280.74 60.6992 281.397 61.8711 282.23C63.056 283.051 64.0326 284.105 64.8008 285.395C65.569 286.684 65.9531 288.266 65.9531 290.141C65.9531 292.302 65.3867 294.255 64.2539 296C63.1341 297.745 61.4935 299.132 59.332 300.16C57.1836 301.189 54.5729 301.703 51.5 301.703C48.6354 301.703 46.1549 301.241 44.0586 300.316C41.9753 299.392 40.3346 298.103 39.1367 296.449C37.9518 294.796 37.2813 292.875 37.125 290.688H42.125C42.2552 292.198 42.763 293.448 43.6484 294.437C44.5469 295.414 45.6797 296.143 47.0469 296.625C48.4271 297.094 49.9115 297.328 51.5 297.328C53.349 297.328 55.0091 297.029 56.4805 296.43C57.9518 295.818 59.1172 294.971 59.9766 293.891C60.8359 292.797 61.2656 291.521 61.2656 290.062C61.2656 288.734 60.8945 287.654 60.1523 286.82C59.4102 285.987 58.4336 285.31 57.2227 284.789C56.0117 284.268 54.7031 283.812 53.2969 283.422L48.375 282.016C45.25 281.117 42.776 279.835 40.9531 278.168C39.1302 276.501 38.2188 274.32 38.2188 271.625C38.2188 269.385 38.8242 267.432 40.0352 265.766C41.2591 264.086 42.8997 262.784 44.957 261.859C47.0273 260.922 49.3385 260.453 51.8906 260.453C54.4688 260.453 56.7604 260.915 58.7656 261.84C60.7708 262.751 62.3594 264.001 63.5312 265.59C64.7161 267.178 65.3411 268.982 65.4063 271H60.7188ZM73.917 301V261H87.4326C90.5706 261 93.1357 261.566 95.1279 262.699C97.1331 263.819 98.6175 265.336 99.5811 267.25C100.545 269.164 101.026 271.299 101.026 273.656C101.026 276.013 100.545 278.155 99.5811 280.082C98.6305 282.009 97.1592 283.546 95.167 284.691C93.1748 285.824 90.6227 286.391 87.5107 286.391H77.8232V282.094H87.3545C89.5029 282.094 91.2282 281.723 92.5303 280.98C93.8324 280.238 94.7764 279.236 95.3623 277.973C95.9613 276.697 96.2607 275.258 96.2607 273.656C96.2607 272.055 95.9613 270.622 95.3623 269.359C94.7764 268.096 93.8258 267.107 92.5107 266.391C91.1956 265.661 89.4508 265.297 87.2764 265.297H78.7607V301H73.917ZM108.829 301V261H113.673V296.703H132.267V301H108.829ZM143.932 301H138.854L153.541 261H158.541L173.229 301H168.15L156.197 267.328H155.885L143.932 301ZM145.807 285.375H166.275V289.672H145.807V285.375ZM211.178 261V301H206.49L184.693 269.594H184.303V301H179.459V261H184.146L206.021 292.484H206.412V261H211.178Z" fill="#0E9094"/>
</svg>
