<svg width="32" height="32" viewBox="0 0 32 32" fill="none" xmlns="http://www.w3.org/2000/svg">
<g id="revis&#195;&#163;o - icon">
<path id="Vector" d="M32 11.7554V7.85703L30.0754 7.36413C29.9246 6.87639 29.7295 6.40516 29.4942 5.95819L30.5063 4.24981L27.7497 1.49316L26.0413 2.50529C25.5948 2.26994 25.1236 2.07484 24.6354 1.92413L24.1425 0H20.2441L19.7512 1.92465C19.2635 2.07535 18.7923 2.27045 18.3453 2.50581L16.6369 1.49368L16.0671 2.06452H8.25806V1.54839C8.25806 0.69471 7.56335 0 6.70968 0H4.64516C3.79148 0 3.09677 0.69471 3.09677 1.54839V2.06452H0V32H23.7419V19.6129H24.1425L24.6354 17.6883C25.1231 17.5375 25.5943 17.3425 26.0413 17.1071L27.7497 18.1192L30.5063 15.3626L29.4942 13.6542C29.7295 13.2077 29.9246 12.7365 30.0754 12.2483L32 11.7554ZM7.22581 15.4839H6.19355V7.22581H7.22581V15.4839ZM4.12903 7.22581H5.16129V15.4839H4.12903V7.22581ZM6.77781 16.5161L5.67742 18.1662L4.57703 16.5161H6.77781ZM7.22581 6.19355H4.12903V5.16129H7.22581V6.19355ZM5.67742 20.0274L7.33006 17.5484H8.25806V21.6774H3.09677V17.5484H4.02477L5.67742 20.0274ZM4.64516 1.03226H6.70968C6.99458 1.03226 7.22581 1.26348 7.22581 1.54839V4.12903H4.12903V1.54839C4.12903 1.26348 4.36026 1.03226 4.64516 1.03226ZM22.7097 30.9677H1.03226V3.09677H3.09677V16.1564L3.33677 16.5161H2.06452V22.7097H9.29032V16.5161H8.01806L8.25806 16.1564V3.09677H15.0348L13.8813 4.25032L14.8934 5.95871C14.6581 6.40516 14.463 6.87639 14.3123 7.36465L12.3871 7.85755V11.7559L14.3117 12.2488C14.4625 12.7365 14.6575 13.2077 14.8929 13.6547L13.8808 15.3631L16.6374 18.1197L18.3458 17.1076C18.7923 17.343 19.2635 17.5381 19.7517 17.6888L20.2446 19.6129H22.7097V30.9677ZM29.2413 11.3961L29.1628 11.6867C28.9997 12.2932 28.7608 12.8712 28.4526 13.4059L28.3019 13.6671L29.2098 15.199L27.5861 16.8227L26.0542 15.9148L25.793 16.0655C25.2583 16.3737 24.6803 16.6126 24.0738 16.7757L23.7832 16.8542L23.3414 18.5806H21.0462L20.6044 16.8542L20.3138 16.7757C19.7074 16.6126 19.1293 16.3737 18.5946 16.0655L18.3334 15.9148L16.8015 16.8227L15.1778 15.199L16.0857 13.6671L15.935 13.4059C15.6268 12.8712 15.3879 12.2932 15.2248 11.6867L15.1463 11.3961L13.4194 10.9543V8.6591L15.1458 8.21729L15.2243 7.92671C15.3874 7.32026 15.6263 6.74219 15.9345 6.20748L16.0852 5.94632L15.1773 4.41445L16.801 2.79071L18.3329 3.69858L18.5941 3.54787C19.1288 3.23974 19.7068 3.00077 20.3133 2.83768L20.6039 2.75923L21.0457 1.03226H23.3409L23.7827 2.75871L24.0733 2.83716C24.6797 3.00026 25.2578 3.23923 25.7925 3.54735L26.0537 3.69806L27.5855 2.79019L29.2093 4.41394L28.3014 5.94581L28.4521 6.20697C28.7603 6.74168 28.9992 7.31974 29.1623 7.92619L29.2408 8.21677L30.9677 8.65858V10.9538L29.2413 11.3961Z" fill="#0E9094"/>
<path id="Vector_2" d="M22.1935 3.61292C18.7783 3.61292 16 6.39124 16 9.80646C16 13.2217 18.7783 16 22.1935 16C25.6088 16 28.3871 13.2217 28.3871 9.80646C28.3871 6.39124 25.6088 3.61292 22.1935 3.61292ZM22.1935 14.9678C19.3476 14.9678 17.0323 12.6524 17.0323 9.80646C17.0323 6.96053 19.3476 4.64517 22.1935 4.64517C25.0395 4.64517 27.3548 6.96053 27.3548 9.80646C27.3548 12.6524 25.0395 14.9678 22.1935 14.9678Z" fill="#0E9094"/>
<path id="Vector_3" d="M22.1936 5.67743C19.917 5.67743 18.0646 7.52982 18.0646 9.80646C18.0646 12.0831 19.917 13.9355 22.1936 13.9355C24.4703 13.9355 26.3226 12.0831 26.3226 9.80646C26.3226 7.52982 24.4703 5.67743 22.1936 5.67743ZM22.1936 12.9032C20.4857 12.9032 19.0968 11.5143 19.0968 9.80646C19.0968 8.09859 20.4857 6.70969 22.1936 6.70969C23.9015 6.70969 25.2904 8.09859 25.2904 9.80646C25.2904 11.5143 23.9015 12.9032 22.1936 12.9032Z" fill="#0E9094"/>
<path id="Vector_4" d="M9.44161 22.8609L8.56058 23.7419H2.06458V29.9355H9.29038V24.4717L10.1714 23.5907L9.44161 22.8609ZM8.25812 28.9032H3.09683V24.7742H7.52832L5.16135 27.1412L4.49399 26.4738L3.76419 27.2036L5.16135 28.6008L8.25812 25.504V28.9032Z" fill="#0E9094"/>
<path id="Vector_5" d="M21.6774 28.9032H20.6451V29.9355H21.6774V28.9032Z" fill="#0E9094"/>
<path id="Vector_6" d="M19.613 28.9032H10.3226V29.9355H19.613V28.9032Z" fill="#0E9094"/>
<path id="Vector_7" d="M21.6775 26.8387H10.3226V27.871H21.6775V26.8387Z" fill="#0E9094"/>
<path id="Vector_8" d="M21.6775 24.7742H10.3226V25.8065H21.6775V24.7742Z" fill="#0E9094"/>
<path id="Vector_9" d="M19.613 21.6774H10.3226V22.7097H19.613V21.6774Z" fill="#0E9094"/>
<path id="Vector_10" d="M19.613 19.6129H10.3226V20.6452H19.613V19.6129Z" fill="#0E9094"/>
<path id="Vector_11" d="M14.4517 17.5484H10.3226V18.5807H14.4517V17.5484Z" fill="#0E9094"/>
</g>
</svg>
