<svg width="35" height="32" viewBox="0 0 35 32" fill="none" xmlns="http://www.w3.org/2000/svg">
<g id="Layer 2">
<path id="Vector" d="M17.1733 32C13.7768 32 10.4565 31.0616 7.63235 29.3035C4.80821 27.5454 2.60706 25.0466 1.30725 22.1229C0.00744094 19.1993 -0.332648 15.9823 0.329988 12.8786C0.992625 9.77486 2.62823 6.92394 5.02996 4.6863C7.43169 2.44866 10.4917 0.924806 13.823 0.307443C17.1543 -0.309921 20.6073 0.00693255 23.7453 1.21793C26.8833 2.42894 29.5654 4.4797 31.4524 7.11088C33.3395 9.74207 34.3467 12.8355 34.3467 16C34.3467 20.2435 32.5373 24.3131 29.3167 27.3137C26.0961 30.3143 21.728 32 17.1733 32ZM17.1733 2.46154C14.2993 2.46154 11.4898 3.25556 9.10019 4.74319C6.71053 6.23081 4.84802 8.34523 3.74819 10.8191C2.64835 13.2929 2.36058 16.015 2.92127 18.6412C3.48197 21.2674 4.86594 23.6798 6.89817 25.5731C8.93041 27.4665 11.5196 28.7559 14.3384 29.2783C17.1572 29.8007 20.079 29.5326 22.7342 28.5079C25.3895 27.4832 27.6589 25.748 29.2557 23.5216C30.8524 21.2952 31.7046 18.6777 31.7046 16C31.7046 12.4094 30.1736 8.96582 27.4485 6.42687C24.7234 3.88791 21.0273 2.46154 17.1733 2.46154Z" fill="#0E9094"/>
<path id="Vector_2" d="M17.1734 17.2307C15.867 17.2307 14.59 16.8698 13.5038 16.1936C12.4175 15.5174 11.571 14.5563 11.071 13.4319C10.5711 12.3074 10.4403 11.0701 10.6952 9.87633C10.95 8.6826 11.5791 7.58609 12.5028 6.72546C13.4266 5.86483 14.6035 5.27873 15.8848 5.04128C17.166 4.80383 18.4941 4.9257 19.701 5.39147C20.908 5.85724 21.9395 6.64599 22.6653 7.65799C23.3911 8.66998 23.7785 9.85977 23.7785 11.0769C23.7785 12.709 23.0826 14.2742 21.8439 15.4283C20.6052 16.5824 18.9252 17.2307 17.1734 17.2307ZM17.1734 7.38458C16.3895 7.38458 15.6233 7.60113 14.9716 8.00684C14.3199 8.41256 13.8119 8.98922 13.512 9.6639C13.212 10.3386 13.1335 11.081 13.2864 11.7972C13.4394 12.5135 13.8168 13.1714 14.371 13.6877C14.9253 14.2041 15.6314 14.5558 16.4002 14.6982C17.169 14.8407 17.9658 14.7676 18.69 14.4881C19.4141 14.2087 20.0331 13.7354 20.4685 13.1282C20.904 12.521 21.1364 11.8072 21.1364 11.0769C21.1364 10.0976 20.7189 9.15847 19.9757 8.46603C19.2325 7.77358 18.2244 7.38458 17.1734 7.38458Z" fill="#0E9094"/>
<path id="Vector_3" d="M29.7891 25.8461C29.6058 25.8473 29.4242 25.8129 29.2559 25.7451C29.0876 25.6773 28.9363 25.5776 28.8116 25.4523C27.4094 24.0273 25.705 22.889 23.8063 22.1094C21.9076 21.3298 19.8559 20.9258 17.781 20.9231H16.5657C12.698 20.9153 8.97884 22.3101 6.19561 24.8123C5.93846 25.01 5.61058 25.1098 5.27775 25.0917C4.94492 25.0735 4.63175 24.9388 4.40107 24.7146C4.17039 24.4903 4.03926 24.1931 4.03398 23.8825C4.0287 23.5719 4.14966 23.2709 4.3726 23.04C7.6433 20.0947 12.0169 18.4524 16.5657 18.4615H17.781C20.2199 18.4667 22.6313 18.9416 24.8638 19.8566C27.0962 20.7716 29.1014 22.1069 30.7535 23.7784C30.928 23.9538 31.044 24.1727 31.0871 24.4084C31.1303 24.6442 31.0988 24.8865 30.9965 25.1059C30.8942 25.3252 30.7255 25.512 30.5111 25.6435C30.2967 25.775 30.0458 25.8454 29.7891 25.8461Z" fill="#0E9094"/>
</g>
</svg>
